<?xml version="1.0" encoding="UTF-8"?>
<svg id="Layer_1" data-name="Layer 1" xmlns="http://www.w3.org/2000/svg" xmlns:xlink="http://www.w3.org/1999/xlink" viewBox="0 0 1523.53 935.53">
  <defs>
    <style>
      .cls-1 {
        fill: #e64b28;
      }

      .cls-2, .cls-3 {
        fill: #231f20;
      }

      .cls-4 {
        font-family: Montserrat-ExtraBold, Montserrat;
        font-size: 283.12px;
        font-variation-settings: 'wght' 800;
        font-weight: 700;
      }

      .cls-4, .cls-5 {
        fill: #fff;
      }

      .cls-6 {
        fill: #356a9e;
      }

      .cls-7 {
        stroke: #808285;
        stroke-width: 1.8px;
      }

      .cls-7, .cls-8, .cls-9 {
        fill: none;
      }

      .cls-7, .cls-9, .cls-3 {
        stroke-miterlimit: 10;
      }

      .cls-10 {
        fill: #ccc;
      }

      .cls-11 {
        fill: #2a3784;
      }

      .cls-12 {
        filter: url(#drop-shadow-1);
      }

      .cls-13 {
        fill: #eeab87;
      }

      .cls-9 {
        stroke: #eeab87;
        stroke-linecap: round;
        stroke-width: 2.17px;
      }

      .cls-14 {
        fill: #a7a9ac;
      }

      .cls-15 {
        fill: #e6e7e8;
      }

      .cls-16 {
        opacity: .64;
      }

      .cls-17 {
        fill: #27aae1;
      }

      .cls-3 {
        stroke: #fff;
        stroke-width: 1.1px;
      }
    </style>
    <filter id="drop-shadow-1" x="-8.19" y="-8.23" width="1553.76" height="966" filterUnits="userSpaceOnUse">
      <feOffset dx="7" dy="7"/>
      <feGaussianBlur result="blur" stdDeviation="5"/>
      <feFlood flood-color="#231f20" flood-opacity=".35"/>
      <feComposite in2="blur" operator="in"/>
      <feComposite in="SourceGraphic"/>
    </filter>
  </defs>
  <g class="cls-12">
    <path class="cls-17" d="M19.27,478.75h1504.26v279.32c0,70.94-57.59,128.53-128.53,128.53H147.79c-70.94,0-128.53-57.59-128.53-128.53v-279.32h0Z"/>
    <g>
      <polygon class="cls-13" points="1296.13 432.53 1295.37 432.4 1295.77 434.65 1296.13 432.53"/>
      <path class="cls-13" d="M1185.03,494.24l-3.33,19.93,19.93,3.33c2.89.48,5.77.81,8.63.97-2.63-39.73,25.01-75.93,65.12-83.08l18.29-3.26-17.47-2.93c-43.14-7.21-83.95,21.91-91.17,65.04Z"/>
      <path class="cls-1" d="M1291.13,444.02h20.2v20.2c0,43.71-35.48,79.19-79.19,79.19h-20.2v-20.2c0-43.71,35.48-79.19,79.19-79.19Z" transform="translate(2609.17 633.85) rotate(164.56)"/>
      <polygon class="cls-1" points="1293.67 432.12 1295.37 432.4 1295.27 431.84 1293.67 432.12"/>
      <g>
        <path class="cls-1" d="M1030.61,45.97c-8.92,27.51-5.57,56.04,7.02,79.7,34.75,5.04,78.73,12.6,122.62,23.34l5.9-46.21c.92-7.17-3.4-13.98-10.27-16.21l-125.27-40.63ZM1043.9,75.93c2.67-8.22,11.49-12.72,19.71-10.06s12.72,11.49,10.06,19.71c-2.67,8.22-11.49,12.72-19.71,10.06-8.22-2.67-12.72-11.49-10.06-19.71Z"/>
        <path class="cls-13" d="M1160.24,149.01l-3.43,26.81c-1.19,9.34-10.59,15.3-19.55,12.39l-40.84-13.25c-26.29-8.53-46.77-26.68-58.8-49.3,34.75,5.04,78.73,12.6,122.62,23.34Z"/>
        <path class="cls-1" d="M1212.25,95.25c17.55.96,52.71,5.66,92.09,26.26,7.82,4.09,10.3,14.1,5.25,21.34l-32.14,46.06c-27.4-13.5-60.21-24.71-94.07-33.93l14.01-49.14c1.87-6.57,8.04-10.97,14.86-10.59Z"/>
        <path class="cls-13" d="M1277.45,188.91l-25.36,36.35c-3.74,5.36-10.57,7.59-16.75,5.46-14-4.82-38.89-13.67-54.67-20.9-6.57-3.01-9.96-10.36-7.98-17.31l10.7-37.53c33.85,9.22,66.66,20.43,94.07,33.93Z"/>
        <path class="cls-1" d="M1346.08,147.42c14.98,11.47,39.23,35.78,45.9,76.37.89,5.44-1.35,10.93-5.81,14.18l-34.25,25.02c-2.87-8.57-6.83-17.02-12.1-25.26-10.12-15.84-27.48-29.76-49.32-41.97l35.12-45.63c4.91-6.38,14.07-7.6,20.46-2.71Z"/>
        <path class="cls-13" d="M1351.93,262.99l-25.2,18.41c-6.72,4.91-16.18,3.24-20.79-3.69-6.04-9.09-16.51-21.28-33.63-31.84-7.38-4.55-9.22-14.49-3.92-21.37l22.12-28.75c21.84,12.21,39.2,26.14,49.32,41.97,5.27,8.24,9.23,16.69,12.1,25.26Z"/>
        <path class="cls-13" d="M1337.43,346.21c-8.41.74-15.71-5.78-15.89-14.22-.16-7.55-.75-16.57-2.35-24.07-1.27-5.92,1.15-12.02,6.2-15.37l29.41-19.47c5.66,24.12,3.28,48.82-3.09,71.88l-14.28,1.25Z"/>
        <path class="cls-1" d="M1397.79,270.77c1.26,18.02,1.98,42.24-1.19,59.48-1.19,6.47-6.55,11.35-13.11,11.92l-31.8,2.78c6.37-23.06,8.76-47.75,3.09-71.88l20.34-13.47c9.33-6.18,21.88-.01,22.65,11.15Z"/>
        <path class="cls-1" d="M1380.33,374.07c-2.99,5.9-6.49,12.09-10.37,17.69-3.59,5.18-10.14,7.42-16.18,5.61l-20.44-6.14c5.59-10.95,10.86-22.92,15.07-35.51l16.53-2.68c11.8-1.91,20.79,10.37,15.39,21.03Z"/>
        <path class="cls-13" d="M1323.32,388.22c-7.8-2.34-12.17-10.61-9.74-18.38.03-.1.06-.21.1-.31,1.65-5.28,6.15-9.17,11.61-10.06l23.13-3.75c-4.21,12.59-9.47,24.56-15.07,35.51l-10.02-3.01Z"/>
        <path class="cls-1" d="M1337.55,426.72c-4.01,3.69-7.23,6.5-9.78,8.62-4.96,4.13-12.04,4.5-17.42.94l-3.27-2.17c6.24-8.68,13.81-20.07,21.18-33.33l3.91,1.27c10.65,3.45,13.62,17.1,5.38,24.67Z"/>
        <path class="cls-13" d="M1297.52,427.78c-6.77-4.48-8.58-13.62-4.05-20.36,1.22-1.81,2.42-3.64,3.55-5.37,3.6-5.56,10.48-8,16.78-5.96l14.45,4.69c-7.37,13.26-14.94,24.65-21.18,33.33l-9.55-6.33Z"/>
      </g>
      <circle class="cls-2" cx="1058.79" cy="80.76" r="11.75"/>
      <g>
        <path class="cls-9" d="M1297.85,130.9s-34.95-19.06-78.98-23.87"/>
        <path class="cls-9" d="M1381.86,225.39s-7.87-38.69-38.92-68.92"/>
        <path class="cls-9" d="M1386.36,269s5.75,22.89.21,61.94"/>
        <path class="cls-9" d="M1375.66,364.56s-1.67,9.56-14.47,25.59"/>
        <line class="cls-9" x1="1336.27" y1="417.21" x2="1320.28" y2="431.5"/>
        <line class="cls-9" x1="1144.92" y1="96.35" x2="1086.47" y2="77.39"/>
      </g>
      <path class="cls-1" d="M1038.39,147.56c-34.31-6.09-65.47-26.77-86.05-54.7-6.74-9.42-13.19-19.36-17.05-30.35-5.07-15.32-3.12-32.92,5.74-46.5,4.13-6.25,10.9-10.3,17.85-12.54,22.08-6.62,46.96-2.49,69.19,1.66,28.25,5.67,56.24,14.71,83.45,24.12,4.84,1.61,11.59,3.77,16.53,5.23,41.09,11.76,96.12,23.04,134.62-.76,9.6-6.24,18.07-15.11,21.85-26.08-3.63,11.08-12.01,20.1-21.56,26.52-40.26,25.86-100.73,12.54-143.69-.63-41.48-13.61-117.97-41.25-159.87-28.52-6.74,2.17-13.1,5.95-17.05,11.88-8.59,13.19-10.59,30.25-5.75,45.21,3.76,10.88,10.07,20.74,16.66,30.1,20.33,27.89,51.04,48.89,85.15,55.36h0Z"/>
    </g>
    <g>
      <g>
        <path class="cls-15" d="M935.71,282.08c-22.61,35.37-35.86,90.98,11.61,166.66,0,0-3.98,28.44,15.92,45.4.83.72,1.72,1.41,2.66,2.09.36.27.74.55,1.14.79,1.14.77,2.35,1.51,3.62,2.22,1.71.95,3.53,1.81,5.49,2.59,1.46.57,2.97,1.11,4.59,1.59.55.18,1.1.34,1.65.48,1.52.41,3.09.78,4.73,1.09.76.16,1.54.31,2.33.42,1.7.28,3.48.5,5.33.67.34.05.7.07,1.06.09.81.07,1.63.12,2.48.17,2.49.12,5.12.16,7.86.12.94-.01,1.9-.05,2.87-.11,2.87-.15,5.84-.38,8.97-.74-.04.03-.08.03-.12.04-396.77,108.68-569.25,31.65-691.13,4.25-20.84-4.68-29.68-7.61-40.2-6.38,137.18-85.34,387.8-216.94,693.68-267.39l.13.77c-6.28,4.01-28.02,19.08-44.68,45.15Z"/>
        <path class="cls-14" d="M980.26,236.16c-423.58,26.87-570.22,132.37-674.42,184.43-27.73,13.86-22.09,14.02-53.02,12.13L0,375.8l162.29,110.34-104.44,141.89,199.17-114.95c13.89-5.78,22.14-8.68,29.55-9.54,137.18-85.33,387.8-216.95,693.68-267.39Z"/>
      </g>
      <path class="cls-5" d="M357.64,497.44s242.24,88.84,596.71,19.19"/>
      <path class="cls-6" d="M1059.61,488.55l4.84-2.68v-.1c-1.61.92-3.22,1.85-4.84,2.78Z"/>
      <g>
        <circle class="cls-5" cx="1119.03" cy="316.24" r="28.99"/>
        <circle class="cls-3" cx="1119.03" cy="316.24" r="17.61"/>
        <g>
          <path class="cls-8" d="M1113.43,287.96c15.61-3.1,30.78,7.06,33.88,22.67,3.1,15.63-7.04,30.8-22.66,33.89-15.63,3.1-30.79-7.04-33.89-22.67-3.1-15.61,7.04-30.79,22.67-33.89Z"/>
          <path class="cls-10" d="M1073.56,489.24v-.07s6.34-3.52,6.34-3.52c-2.1,1.2-4.21,2.4-6.34,3.59Z"/>
          <path class="cls-15" d="M956,279.19c-22.61,35.38-35.86,90.99,11.6,166.65,0,0-10.35,73.95,85.81,54.49l20.13-11.16,6.35-3.52c1.62-.93,3.23-1.85,4.82-2.78,102.9-59.72,160.89-121.89,157.24-174.08,0,0-.09-.89-.56-2.47-1.54-5.22-7.18-18.03-27.16-31.48-48.6-8.06-164.12-22.31-258.24,4.35ZM1113.43,287.96c15.61-3.1,30.78,7.06,33.88,22.67,3.1,15.63-7.04,30.8-22.66,33.89-15.63,3.1-30.79-7.04-33.89-22.67-3.1-15.61,7.04-30.79,22.67-33.89Z"/>
          <path class="cls-14" d="M1002.45,232.93l24.81,1.06c13.63.4,26.4,1.07,38.35,1.97,81.09,6.12,124.94,22.94,148.62,38.88-48.6-8.06-164.12-22.31-258.24,4.35,19.68-30.79,46.45-46.25,46.45-46.25Z"/>
        </g>
        <g>
          <path class="cls-10" d="M538.3,265.9v.05c2.14-1.18,4.27-2.39,6.35-3.59l-6.35,3.54Z"/>
          <path class="cls-7" d="M967.62,445.85s-10.36,73.95,85.79,54.5l20.14-11.16,6.35-3.54c1.62-.92,3.24-1.84,4.84-2.77,102.88-59.73,160.88-121.88,157.22-174.09,0,0-.1-.88-.56-2.46-1.54-5.21-7.19-18.02-27.15-31.48-23.7-15.95-67.52-32.75-148.64-38.87-11.95-.92-24.71-1.59-38.34-1.96l-24.81-1.07s-26.77,15.46-46.45,46.25c-22.61,35.37-35.87,90.98,11.61,166.66Z"/>
        </g>
      </g>
      <path class="cls-5" d="M276.76,450.95s137.63-80.3,183.19-96.6"/>
    </g>
    <text class="cls-4" transform="translate(93.89 807.27) scale(.74 1)"><tspan x="0" y="0">Rupsha Fish</tspan></text>
    <g class="cls-16">
      <path class="cls-17" d="M1260.95,555.97c-28.24,27.33-74.41,26.65-110.67,11.51-36.26-15.14-66.17-41.93-98.93-63.64-82.12-54.41-185.03-76.56-282.26-60.75-85.66,13.93-164.04,55.39-246.59,82.17-46.92,15.22-95.22,25.69-143.43,36.14-51.6,11.18-119.37,15.22-142.84-32.07"/>
      <path class="cls-11" d="M1257.02,552.04c-23.3,22.1-58.21,23.95-87.87,16.01-35.21-9.43-64.64-33.08-93.64-54.08-29.47-21.34-60.53-39.43-94.41-52.86-33.98-13.47-69.72-22.16-106.03-26.16-35.75-3.94-71.96-2.99-107.46,2.78-38.58,6.28-75.95,18.22-112.52,31.78-36.8,13.64-72.97,28.93-109.94,42.14-38.61,13.8-78.17,24.32-118.11,33.47-32.93,7.54-66.33,16.5-100.25,17.81-25.63.99-55.42-1.88-74.64-20.86-4.61-4.55-8.2-9.79-11.13-15.55-3.24-6.37-12.82-.76-9.59,5.6,27.92,54.91,104.55,44.29,153.87,33.59,41.85-9.08,83.74-18.29,124.74-30.74,38.45-11.68,75.7-26.74,113.08-41.38,37.22-14.58,74.76-28.74,113.65-38.24,37.03-9.05,74.95-13.05,113.05-11.27,74.13,3.46,146.42,28.06,207.33,70.41,30.88,21.47,60.15,46.43,95.71,59.97,29.48,11.22,64.84,13.4,93.52-1.31,6.78-3.47,12.96-8.02,18.48-13.25,5.19-4.93-2.66-12.77-7.85-7.85h0Z"/>
    </g>
    <g class="cls-16">
      <path class="cls-17" d="M1083.3,566.22c-52.49,19-104.86,24.23-157.16,4.69-23.34-8.72-43.38-24.53-66.17-34.59-64.25-28.34-138.55-7.3-204.89,15.71-66.34,23-138.21,47.95-205.05,26.42"/>
      <path class="cls-11" d="M1081.83,560.87c-42.02,15.08-87.13,22.24-131.13,11.73-21.36-5.1-39.98-14.45-58.8-25.48-17.49-10.25-35.19-19.58-54.98-24.56-83.42-21-165.15,21.1-243.33,43.77-46.09,13.36-95.29,21.54-142.08,6.76-6.83-2.16-9.75,8.56-2.95,10.7,85.63,27.04,170.44-16.89,251.2-40.36,39.87-11.59,82.75-20.07,124.18-12.36,20.3,3.78,38.55,11.83,56.34,22.12,18.56,10.73,36.62,21.25,57.31,27.4,48.8,14.51,99.95,7.94,147.19-9.02,6.67-2.4,3.8-13.13-2.95-10.7h0Z"/>
    </g>
    <g class="cls-16">
      <path class="cls-17" d="M659.17,591.65c30.56-14.8,64.11-23.39,98.01-25.09,9.45-.48,19.04-.41,28.23,1.87,17.96,4.47,32.72,16.9,49.28,25.18,16.71,8.36,35.51,12.49,54.18,11.89"/>
      <path class="cls-11" d="M661.97,596.44c28.63-13.74,59.88-22.07,91.58-24.13,15.93-1.03,30.93-.1,45.39,7.2,13.2,6.67,25.08,15.65,38.68,21.55,16.18,7.02,33.61,10.4,51.25,9.99,7.13-.17,7.16-11.27,0-11.1-16.22.38-32.45-2.55-47.3-9.2-13.98-6.26-26.16-15.82-40.03-22.29-14.78-6.89-30.04-8.3-46.17-7.37s-31.79,3.29-47.28,7.08c-17.86,4.37-35.15,10.73-51.72,18.68-6.44,3.09-.81,12.66,5.6,9.59h0Z"/>
    </g>
  </g>
</svg>